<?xml version="1.0" encoding="utf-8"?>
<!-- Generator: Adobe Illustrator 25.0.0, SVG Export Plug-In . SVG Version: 6.00 Build 0)  -->
<svg version="1.1" id="Ebene_1" xmlns="http://www.w3.org/2000/svg" xmlns:xlink="http://www.w3.org/1999/xlink" x="0px" y="0px"
	 viewBox="0 0 800 215" style="enable-background:new 0 0 800 215;" xml:space="preserve">
<style type="text/css">
	.st0{fill:#E31C79;}
</style>
<path class="st0" d="M574.96,15h55.46l-37.03,97.2h0.56l48.4-42.58h66.39l-75.59,58.54L654.82,215H594.6l-10.32-52.66l-14.58,11.2
	L553.7,215h-55.46L574.96,15z M381.86,69.62h53.5l-7.46,18.49h0.56c12.97-13.16,31.35-22.13,49-22.13
	c25.49,0,45.46,10.64,40.42,39.22c-1.14,6.44-4.69,17.09-8.81,27.73L476.95,215h-55.46l26.04-66.67c3.16-8.4,7.69-18.21,8.73-24.09
	c1.63-9.24-4.25-14.01-13.22-14.01c-17.65,0-25.75,12.61-31.78,27.73L381.44,215h-55.46L381.86,69.62z M305.11,69.62h55.46
	L304.69,215h-55.46L305.11,69.62z M248.92,15h55.46l-76.72,200H172.2L248.92,15z M78.33,15h154.34l-19.68,51.26h-92.72l-12.2,32.37
	h78.71l-18.2,47.62H89.88L62.96,215H1.33L78.33,15z M798.67,15H743.2l-14.99,38.94h55.46L798.67,15z"/>
</svg>
